<svg width="139" height="40" viewBox="0 0 139 40" fill="none" xmlns="http://www.w3.org/2000/svg">
<g id="Logo">
<g id="Logo_2">
<g id="Clipped">
<mask id="mask0" mask-type="alpha" maskUnits="userSpaceOnUse" x="0" y="0" width="38" height="38">
<path id="a" fill-rule="evenodd" clip-rule="evenodd" d="M0.0292568 37.8673V0.176584H37.3346V37.8673H0.0292568Z" fill="white"/>
</mask>
<g mask="url(#mask0)">
<path id="Shape" d="M8.79511 36.6854L3.67804 30.2878L14.1697 23.1756H15.9722L10.4439 0.175611L17.9868 1.74634L18.7693 23.7927L37.3341 29.2024L36.4815 36.7146L14.7888 26.8912L8.79511 36.6854Z" fill="#EAE522"/>
</g>
</g>
<g id="Clipped_2">
<mask id="mask1" mask-type="alpha" maskUnits="userSpaceOnUse" x="0" y="0" width="38" height="38">
<path id="a_2" fill-rule="evenodd" clip-rule="evenodd" d="M0.0292568 37.8673V0.176584H37.3346V37.8673H0.0292568Z" fill="white"/>
</mask>
<g mask="url(#mask1)">
<path id="Shape_2" d="M6.11805 37.8673L0 30.4771L11.2132 23.1746H14.1693L3.67659 30.2888L8.79512 36.6863L6.11805 37.8683" fill="#949729"/>
</g>
</g>
<path id="Shape_3" d="M6.78537 37.5727L8.58537 39.8654L11.2766 40L8.79561 36.6854L6.78585 37.5732" fill="#CBCCCB"/>
<path id="Shape_4" d="M14.3024 27.6878L33.9493 38.2293L36.4819 36.7146L14.7893 26.8912L14.3024 27.6873" fill="#949729"/>
<path id="Shape_5" d="M14.3025 27.6878L8.79514 36.6849L11.2771 40L13.6839 38.6995L14.7278 27.9151L14.3034 27.6873" fill="white"/>
<path id="Shape_6" d="M15.4 28.2771L17.0097 38.3561L18.2361 35.9902L17.1766 29.2293L15.4 28.2771" fill="#777776"/>
<path id="Shape_7" d="M14.6722 27.8859L14.7258 27.9151L13.7468 38.0454L17.0102 38.3561L15.4005 28.2771L14.6736 27.8859" fill="#414140"/>
<path id="Shape_8" d="M15.9707 23.1756H14.1688L8.87709 1.62098L10.4429 0.175611L15.9717 23.1756" fill="#949729"/>
<path id="Shape_9" d="M4.25025 7.25366L5.93806 5.31463L14.1683 23.1756L4.25025 7.25366Z" fill="white"/>
<path id="Shape_10" d="M5.93755 5.31463L14.1688 23.1756L9.60682 4.59171L5.93755 5.31366" fill="#CBCCCB"/>
<path id="Shape_11" d="M14.1688 23.1756H11.2127L1.97706 13.7415L3.02584 11.3639L14.1688 23.1756Z" fill="#414140"/>
<path id="Shape_12" d="M6.01952 10.0951L3.02538 11.3634L14.1688 23.1756L6.01952 10.0946" fill="#777776"/>
<path id="Shape_13" d="M18.7698 23.7927H29.0663L27.4907 22.8356H18.7366L18.7698 23.7927Z" fill="white"/>
<path id="Shape_14" d="M29.0663 23.7927H18.7697L29.0663 26.7927V23.7927Z" fill="#CBCCCB"/>
<path id="Shape_15" d="M8.79511 36.6854L3.67804 30.2878L14.1697 23.1756H15.9722L10.4439 0.175611L17.9868 1.74634L18.7693 23.7927L37.3341 29.2024L36.4815 36.7146L14.7888 26.8912L8.79511 36.6854Z" fill="#EAE522"/>
<path id="Shape_16" d="M8.79511 36.6854L3.67804 30.2878L14.1697 23.1756H15.9722L10.4439 0.175611L17.9868 1.74634L18.7693 23.7927L37.3341 29.2024L36.4815 36.7146L14.7888 26.8912L8.79511 36.6854Z" fill="#EAE522"/>
<path id="Shape_17" d="M22.9107 20.1141L20.1166 19.6932L18.6532 20.5127L18.7166 22.3078L22.9068 20.1176" fill="#414140"/>
<path id="Shape_18" d="M18.7366 22.8356H24.0146L22.9107 20.1137L18.7176 22.3054L18.7371 22.8356" fill="#777776"/>
<path id="Shape_19" fill-rule="evenodd" clip-rule="evenodd" d="M84.5922 7.61805H82.8264C82.641 7.61805 82.4932 7.76927 82.4932 7.95464V22.2439C82.4932 22.4283 82.6395 22.5776 82.8249 22.5776H84.5907C84.7761 22.5776 84.9244 22.4283 84.9244 22.2439V7.9561C84.9244 7.77073 84.7761 7.61951 84.5927 7.61951L84.5922 7.61805ZM41.0264 9.45659C40.1351 8.65171 38.7824 8.24195 37.0103 8.24195C35.8103 8.24195 34.6639 8.33269 33.6103 8.51025C33.4493 8.5361 33.3273 8.67708 33.3273 8.84195V22.2439C33.3273 22.4283 33.4785 22.5776 33.6639 22.5776H35.4103C35.5956 22.5776 35.7468 22.4283 35.7468 22.2439V17.2122C36.0932 17.2571 36.4639 17.2659 36.82 17.2659C38.6834 17.2659 40.2346 16.7 41.1956 15.6737C41.9517 14.898 42.3371 13.8444 42.3371 12.5468C42.3371 11.2785 41.8737 10.181 41.0395 9.45903L41.0264 9.45659ZM36.8507 15.1868C36.401 15.1868 36.0332 15.1624 35.7385 15.1102V10.382C36.0263 10.338 36.4688 10.3024 37.0493 10.3024C38.3566 10.3024 39.9078 10.7044 39.9078 12.6244C39.9078 14.8537 37.9956 15.1868 36.8541 15.1868H36.8507ZM48.2493 11.9459C48.4664 11.9459 48.6351 11.9668 48.8312 12.0166H48.8498C48.9981 12.0537 49.1054 12.1878 49.1054 12.3415V14.0151C49.1054 14.1176 49.0581 14.2151 48.9786 14.2785C48.9015 14.342 48.7956 14.3663 48.6981 14.342C48.5322 14.3063 48.3761 14.2898 48.1664 14.2898C47.1322 14.2898 46.3517 15.0551 46.1273 16.2878C46.0883 16.52 46.0493 16.7766 46.0493 17.0537V22.2444C46.0493 22.4288 45.8981 22.578 45.7127 22.578H43.9664C43.781 22.578 43.6298 22.4293 43.6298 22.2439V15.5361C43.6298 14.2824 43.6054 13.3507 43.5469 12.5215C43.542 12.4288 43.5761 12.3361 43.6395 12.2727C43.7029 12.2044 43.7859 12.1654 43.8786 12.1654H45.4249C45.6054 12.1654 45.7517 12.3068 45.7566 12.4922L45.7761 13.2629C46.381 12.4385 47.2737 11.9459 48.2493 11.9459ZM56.9815 17.3546C56.9813 19.3515 55.8789 20.8015 54.3668 20.8015C52.8498 20.8015 51.7522 19.3683 51.7522 17.3937C51.7522 15.6766 52.5717 13.9449 54.4059 13.9449C56.4449 13.9449 56.9815 16.1741 56.9815 17.3546ZM49.2961 17.4517C49.2961 14.2098 51.4132 11.9463 54.4449 11.9463L54.4459 11.9439C57.3971 11.9439 59.4556 14.1439 59.4556 17.2902C59.4556 21.0741 56.7776 22.799 54.2849 22.799C51.3483 22.799 49.2961 20.6015 49.2961 17.4517ZM68.44 17.3122C68.44 19.4254 67.44 20.7395 65.8254 20.7395C64.7205 20.7395 63.7864 20.0078 63.5059 18.941C63.4668 18.7312 63.4307 18.5068 63.4307 18.2776V16.6093C63.4307 16.3995 63.4893 16.1556 63.5464 15.9654C63.8371 14.819 64.8025 14.0239 65.8878 14.0239C67.6537 14.0239 68.4424 15.6727 68.4424 17.3117L68.44 17.3122ZM63.2283 13.2766C64.0283 12.4015 65.121 11.9449 66.4283 11.9449L66.42 11.9312C68.9985 11.9312 70.8688 14.1556 70.8688 17.219C70.8688 21.0629 68.4824 22.7898 66.1215 22.7898C65.0581 22.7898 64.102 22.4337 63.4239 21.8093V26.219C63.4239 26.4044 63.2776 26.5556 63.0922 26.5556H61.3488C61.1634 26.5556 61.0146 26.4093 61.0146 26.2239V15.6776C61.0146 14.4581 60.9756 13.4824 60.9317 12.5117C60.9293 12.4239 60.9634 12.3312 61.0293 12.2678C61.0907 12.1995 61.1776 12.1654 61.2683 12.1654H62.8576C63.0332 12.1654 63.1829 12.3059 63.1893 12.4839L63.2283 13.2766ZM74.1698 16.0912L74.1699 16.0907H78.5844C78.5502 15.6415 78.4137 14.9239 77.9259 14.4254C77.5746 14.0668 77.0868 13.8839 76.4819 13.8839C75.0383 13.8839 74.3831 15.1362 74.1699 16.0907H74.1698V16.0912ZM71.7337 17.5337C71.7337 14.2439 73.7454 11.9449 76.6234 11.9449L76.6298 11.9312C79.6298 11.9312 80.9761 14.4044 80.9761 16.858C80.9761 17.1849 80.9473 17.4434 80.9249 17.6337L80.9151 17.7215C80.8956 17.8922 80.7517 18.019 80.5834 18.019H74.1127C74.3122 20.458 76.2439 20.7312 77.0898 20.7312C78.3522 20.7312 79.0654 20.502 79.6459 20.258C79.7337 20.219 79.841 20.2239 79.9288 20.2678C80.0166 20.3117 80.079 20.3898 80.0995 20.4873L80.3971 21.7556C80.4361 21.9117 80.3571 22.0727 80.2117 22.141C79.5727 22.4337 78.4702 22.78 76.841 22.78C73.7415 22.78 71.7337 20.719 71.7337 17.5337ZM87.5624 7.61951H89.3263C89.5117 7.61951 89.6629 7.77073 89.6629 7.9561V22.2439C89.6629 22.4283 89.5117 22.5776 89.3263 22.5776H87.5624C87.379 22.5776 87.2307 22.4283 87.2307 22.2439V7.9561C87.2307 7.77073 87.3805 7.61951 87.5624 7.61951ZM93.6971 16.0927L93.6972 16.0922H98.1117C98.0776 15.6385 97.9449 14.9215 97.4532 14.4288C97.1019 14.0683 96.6171 13.8854 96.0093 13.8854C94.5656 13.8854 93.9105 15.1376 93.6972 16.0922H93.6971V16.0927ZM91.262 17.5351C91.262 14.2454 93.2761 11.9463 96.1507 11.9463L96.1571 11.9361C99.1571 11.9361 100.503 14.4093 100.503 16.858C100.503 17.156 100.478 17.3972 100.459 17.5816V17.5817L100.454 17.6337L100.444 17.7263C100.421 17.8971 100.278 18.0239 100.107 18.0239H93.6371C93.842 20.4629 95.7688 20.7361 96.6176 20.7361C97.881 20.7361 98.5932 20.5068 99.1756 20.2629C99.2668 20.2239 99.3707 20.2288 99.4585 20.2727C99.5444 20.3166 99.6102 20.3946 99.6322 20.4922L99.9317 21.7605C99.9693 21.9166 99.8912 22.0776 99.7449 22.1459C99.1059 22.4361 98.0034 22.7815 96.3741 22.7815C93.2707 22.7815 91.262 20.7205 91.262 17.5351ZM107.233 12.0166C107.037 11.9668 106.867 11.9459 106.651 11.9459C105.672 11.9459 104.778 12.4385 104.18 13.2629L104.156 12.4922C104.151 12.3117 104.001 12.1654 103.82 12.1654H102.276C102.182 12.1654 102.093 12.2044 102.032 12.2727C101.968 12.3361 101.938 12.4288 101.943 12.5215C102 13.341 102.024 14.2727 102.024 15.5361V22.2439C102.024 22.4293 102.175 22.578 102.359 22.578H104.105C104.29 22.578 104.441 22.4288 104.441 22.2444V17.0537C104.441 16.7722 104.481 16.5063 104.515 16.2878C104.736 15.0551 105.521 14.2898 106.554 14.2898C106.759 14.2898 106.918 14.3063 107.08 14.342C107.181 14.3615 107.285 14.342 107.363 14.2785C107.444 14.2151 107.488 14.1176 107.488 14.0151V12.3415C107.488 12.1878 107.386 12.0537 107.235 12.0166H107.233ZM111.993 16.2741H115.137L113.961 12.8132C113.801 12.3478 113.67 11.9059 113.556 11.4766C113.424 11.9498 113.302 12.3746 113.171 12.7854L111.993 16.2741ZM114.976 8.57073C114.93 8.43415 114.802 8.3439 114.659 8.3439H112.552C112.408 8.3439 112.283 8.43512 112.235 8.57073L107.64 22.1356C107.605 22.239 107.622 22.3502 107.686 22.439C107.749 22.5259 107.851 22.5785 107.957 22.5785H109.762C109.907 22.5785 110.034 22.4859 110.079 22.3478L111.408 18.3117H115.723L117.094 22.3507C117.138 22.4873 117.265 22.5751 117.406 22.5751H119.284C119.467 22.5751 119.619 22.4239 119.619 22.2385C119.619 22.1654 119.594 22.0971 119.558 22.0483L114.972 8.56537L114.976 8.57073ZM127.25 18.1581V16.4683L127.255 16.4785C127.255 16.2785 127.236 16.0054 127.182 15.82C126.976 14.9127 126.206 14.0102 124.958 14.0102C123.392 14.0102 122.382 15.3615 122.382 17.4395C122.382 19.02 123.046 20.7029 124.915 20.7029C126.003 20.7029 126.914 19.9566 127.179 18.8444C127.231 18.6459 127.25 18.4424 127.25 18.1581ZM129.684 19.7283V7.9561C129.684 7.77073 129.534 7.61951 129.348 7.61951H127.582C127.397 7.61951 127.248 7.77073 127.248 7.9561V12.8746C126.597 12.2829 125.665 11.9459 124.614 11.9459C123.429 11.9459 122.316 12.4093 121.479 13.2581C120.464 14.2776 119.911 15.7898 119.922 17.5117C119.922 20.5702 121.81 22.7946 124.412 22.7946C125.631 22.7946 126.734 22.3117 127.475 21.4971L127.509 22.2483C127.517 22.4239 127.661 22.5654 127.841 22.5654H129.439C129.626 22.5654 129.774 22.4141 129.774 22.2288C129.774 22.1849 129.764 22.141 129.749 22.1068C129.688 21.3556 129.681 20.2922 129.681 19.7117L129.684 19.7283ZM133.898 14.938C133.898 15.499 134.249 15.7868 135.529 16.2746L135.531 16.259C137.441 16.9898 138.295 17.9912 138.295 19.5117C138.295 21.4922 136.737 22.7702 134.329 22.7702C133.253 22.7702 132.197 22.5068 131.431 22.058C131.296 21.9751 131.232 21.8141 131.281 21.6629L131.725 20.3166C131.754 20.219 131.832 20.141 131.93 20.1068C132.029 20.0727 132.137 20.0873 132.224 20.1459C132.716 20.4678 133.57 20.7946 134.369 20.7946C135.354 20.7946 135.92 20.3898 135.92 19.6824C135.92 19.102 135.667 18.6971 134.333 18.2044C132.033 17.3849 131.545 16.0824 131.545 15.1361C131.545 13.2873 133.096 11.9459 135.23 11.9459C136.145 11.9459 137.103 12.1898 137.786 12.5966C137.922 12.679 137.986 12.8439 137.932 12.9951L137.493 14.2829C137.459 14.3785 137.386 14.4556 137.288 14.4888C137.192 14.522 137.085 14.5112 137 14.4576C136.757 14.3039 136.093 13.9454 135.191 13.9454C134.405 13.9454 133.898 14.3341 133.898 14.938Z" fill="#414241"/>
</g>
</g>
</svg>
